<svg width="426" height="221" viewBox="0 0 426 221" fill="none" xmlns="http://www.w3.org/2000/svg">
<path d="M5 6H192.953C231.019 18.5779 204.452 106.14 256 155H5V6Z" fill="white"/>
<rect x="3.5" y="3.5" width="419" height="154.94" rx="6.5" stroke="white" stroke-width="7"/>
<path d="M118.523 69.9116V82.1372H78.8159V69.9116H118.523ZM83.4658 38.9297V115H67.792V38.9297H83.4658ZM129.704 38.9297V115H114.082V38.9297H129.704ZM175.21 51.939L154.521 115H137.854L166.119 38.9297H176.725L175.21 51.939ZM192.399 115L171.657 51.939L169.985 38.9297H180.696L209.118 115H192.399ZM191.458 86.6826V98.9604H151.281V86.6826H191.458Z" fill="#2A719D"/>
<path d="M291.719 102.774V115H253.422V102.774H291.719ZM258.49 38.9297V115H242.816V38.9297H258.49ZM359.743 75.1885V78.7935C359.743 84.5754 358.959 89.7651 357.392 94.3628C355.825 98.9604 353.613 102.879 350.757 106.118C347.901 109.323 344.487 111.778 340.517 113.485C336.581 115.192 332.209 116.045 327.403 116.045C322.631 116.045 318.26 115.192 314.289 113.485C310.353 111.778 306.94 109.323 304.049 106.118C301.158 102.879 298.911 98.9604 297.309 94.3628C295.742 89.7651 294.958 84.5754 294.958 78.7935V75.1885C294.958 69.3717 295.742 64.182 297.309 59.6191C298.876 55.0215 301.088 51.103 303.944 47.8638C306.835 44.6245 310.249 42.1515 314.185 40.4448C318.155 38.7381 322.527 37.8848 327.298 37.8848C332.105 37.8848 336.476 38.7381 340.412 40.4448C344.383 42.1515 347.796 44.6245 350.652 47.8638C353.543 51.103 355.772 55.0215 357.34 59.6191C358.942 64.182 359.743 69.3717 359.743 75.1885ZM343.913 78.7935V75.084C343.913 71.0436 343.547 67.4909 342.815 64.4258C342.084 61.3607 341.004 58.7832 339.576 56.6934C338.148 54.6035 336.407 53.0361 334.352 51.9912C332.297 50.9115 329.945 50.3716 327.298 50.3716C324.651 50.3716 322.3 50.9115 320.245 51.9912C318.225 53.0361 316.501 54.6035 315.073 56.6934C313.68 58.7832 312.617 61.3607 311.886 64.4258C311.154 67.4909 310.789 71.0436 310.789 75.084V78.7935C310.789 82.799 311.154 86.3517 311.886 89.4517C312.617 92.5168 313.697 95.1117 315.125 97.2363C316.553 99.3262 318.295 100.911 320.35 101.991C322.405 103.07 324.756 103.61 327.403 103.61C330.05 103.61 332.401 103.07 334.456 101.991C336.511 100.911 338.235 99.3262 339.628 97.2363C341.022 95.1117 342.084 92.5168 342.815 89.4517C343.547 86.3517 343.913 82.799 343.913 78.7935Z" fill="white"/>
<path d="M120.407 208.486C118.127 208.486 116.267 207.996 114.827 207.016C113.407 206.016 112.697 204.606 112.697 202.786C112.697 202.606 112.717 202.336 112.757 201.976H118.097C118.037 202.736 118.217 203.336 118.637 203.776C119.057 204.216 119.697 204.436 120.557 204.436C121.337 204.436 121.947 204.266 122.387 203.926C122.847 203.586 123.077 203.106 123.077 202.486C123.077 201.846 122.787 201.326 122.207 200.926C121.647 200.526 120.767 200.076 119.567 199.576C118.407 199.096 117.457 198.646 116.717 198.226C115.997 197.786 115.367 197.196 114.827 196.456C114.287 195.716 114.017 194.786 114.017 193.666C113.997 192.286 114.337 191.086 115.037 190.066C115.737 189.046 116.707 188.266 117.947 187.726C119.187 187.186 120.607 186.916 122.207 186.916C123.647 186.916 124.927 187.146 126.047 187.606C127.167 188.046 128.037 188.696 128.657 189.556C129.277 190.396 129.587 191.396 129.587 192.556C129.587 192.856 129.577 193.076 129.557 193.216H124.097C124.117 193.136 124.127 193.016 124.127 192.856C124.127 192.296 123.927 191.846 123.527 191.506C123.147 191.146 122.617 190.966 121.937 190.966C121.217 190.966 120.627 191.146 120.167 191.506C119.727 191.846 119.507 192.316 119.507 192.916C119.507 193.516 119.787 194.026 120.347 194.446C120.907 194.846 121.777 195.316 122.957 195.856C124.137 196.396 125.097 196.896 125.837 197.356C126.597 197.816 127.247 198.436 127.787 199.216C128.327 199.976 128.597 200.916 128.597 202.036C128.597 203.276 128.267 204.386 127.607 205.366C126.947 206.346 125.997 207.116 124.757 207.676C123.517 208.216 122.067 208.486 120.407 208.486ZM137.659 202.516C137.639 202.616 137.629 202.746 137.629 202.906C137.629 203.266 137.729 203.526 137.929 203.686C138.149 203.846 138.499 203.926 138.979 203.926H140.809L140.029 208.276H137.419C134.059 208.276 132.379 206.866 132.379 204.046C132.379 203.626 132.429 203.096 132.529 202.456L133.729 195.796H131.689L132.439 191.536H134.479L135.199 187.456H140.329L139.609 191.536H142.969L142.219 195.796H138.859L137.659 202.516ZM148.736 189.796C147.936 189.796 147.296 189.586 146.816 189.166C146.356 188.726 146.126 188.176 146.126 187.516C146.126 186.616 146.476 185.846 147.176 185.206C147.876 184.566 148.726 184.246 149.726 184.246C150.526 184.246 151.156 184.466 151.616 184.906C152.076 185.326 152.306 185.876 152.306 186.556C152.306 187.436 151.956 188.196 151.256 188.836C150.556 189.476 149.716 189.796 148.736 189.796ZM150.956 191.536L148.016 208.276H142.886L145.826 191.536H150.956ZM152.214 199.906C152.514 198.166 153.134 196.646 154.074 195.346C155.014 194.046 156.174 193.046 157.554 192.346C158.954 191.646 160.474 191.296 162.114 191.296C164.214 191.296 165.874 191.846 167.094 192.946C168.314 194.046 168.964 195.596 169.044 197.596H163.584C163.364 196.316 162.584 195.676 161.244 195.676C160.304 195.676 159.494 196.046 158.814 196.786C158.134 197.506 157.674 198.546 157.434 199.906C157.354 200.326 157.314 200.766 157.314 201.226C157.314 202.166 157.534 202.886 157.974 203.386C158.414 203.886 159.014 204.136 159.774 204.136C161.094 204.136 162.084 203.496 162.744 202.216H168.234C167.454 204.176 166.254 205.716 164.634 206.836C163.014 207.956 161.164 208.516 159.084 208.516C156.924 208.516 155.204 207.926 153.924 206.746C152.664 205.546 152.034 203.916 152.034 201.856C152.034 201.236 152.094 200.586 152.214 199.906ZM180.938 199.936L186.488 208.276H180.128L176.258 201.286L175.028 208.276H169.898L173.828 186.076H178.958L176.798 198.316L183.038 191.536H189.368L180.938 199.936ZM202.346 202.516C202.326 202.616 202.316 202.746 202.316 202.906C202.316 203.266 202.416 203.526 202.616 203.686C202.836 203.846 203.186 203.926 203.666 203.926H205.496L204.716 208.276H202.106C198.746 208.276 197.066 206.866 197.066 204.046C197.066 203.626 197.116 203.096 197.216 202.456L198.416 195.796H196.376L197.126 191.536H199.166L199.886 187.456H205.016L204.296 191.536H207.656L206.906 195.796H203.546L202.346 202.516ZM215.224 208.516C213.784 208.516 212.504 208.226 211.384 207.646C210.264 207.066 209.394 206.246 208.774 205.186C208.174 204.126 207.874 202.896 207.874 201.496C207.874 199.596 208.324 197.866 209.224 196.306C210.124 194.746 211.364 193.526 212.944 192.646C214.524 191.746 216.284 191.296 218.224 191.296C219.664 191.296 220.944 191.596 222.064 192.196C223.204 192.776 224.084 193.596 224.704 194.656C225.324 195.716 225.634 196.946 225.634 198.346C225.634 200.266 225.174 202.006 224.254 203.566C223.354 205.106 222.104 206.316 220.504 207.196C218.924 208.076 217.164 208.516 215.224 208.516ZM215.944 204.106C216.784 204.106 217.534 203.856 218.194 203.356C218.874 202.836 219.394 202.176 219.754 201.376C220.134 200.556 220.324 199.706 220.324 198.826C220.324 197.826 220.054 197.056 219.514 196.516C218.974 195.976 218.294 195.706 217.474 195.706C216.614 195.706 215.854 195.966 215.194 196.486C214.554 196.986 214.054 197.646 213.694 198.466C213.334 199.286 213.154 200.146 213.154 201.046C213.154 202.026 213.414 202.786 213.934 203.326C214.454 203.846 215.124 204.106 215.944 204.106ZM236.035 191.296C237.215 191.296 238.215 191.536 239.035 192.016C239.855 192.496 240.425 193.126 240.745 193.906L241.165 191.536H246.295L243.355 208.246C243.075 209.786 242.515 211.176 241.675 212.416C240.855 213.676 239.745 214.676 238.345 215.416C236.965 216.156 235.355 216.526 233.515 216.526C231.035 216.526 229.125 215.936 227.785 214.756C226.445 213.596 225.845 212.016 225.985 210.016H231.055C231.115 210.656 231.405 211.156 231.925 211.516C232.465 211.896 233.175 212.086 234.055 212.086C235.115 212.086 236.015 211.776 236.755 211.156C237.495 210.556 237.985 209.586 238.225 208.246L238.645 205.876C238.005 206.656 237.195 207.296 236.215 207.796C235.255 208.276 234.185 208.516 233.005 208.516C231.825 208.516 230.775 208.246 229.855 207.706C228.955 207.166 228.245 206.396 227.725 205.396C227.225 204.396 226.975 203.226 226.975 201.886C226.975 201.266 227.035 200.596 227.155 199.876C227.455 198.156 228.045 196.646 228.925 195.346C229.805 194.046 230.865 193.046 232.105 192.346C233.345 191.646 234.655 191.296 236.035 191.296ZM239.695 199.906C239.755 199.546 239.785 199.216 239.785 198.916C239.785 197.936 239.495 197.166 238.915 196.606C238.355 196.046 237.635 195.766 236.755 195.766C235.735 195.766 234.805 196.136 233.965 196.876C233.125 197.596 232.595 198.596 232.375 199.876C232.315 200.236 232.285 200.566 232.285 200.866C232.285 201.846 232.565 202.626 233.125 203.206C233.705 203.766 234.425 204.046 235.285 204.046C236.305 204.046 237.235 203.676 238.075 202.936C238.915 202.196 239.455 201.186 239.695 199.906ZM257.477 191.296C259.637 191.296 261.347 191.886 262.607 193.066C263.887 194.226 264.527 195.816 264.527 197.836C264.527 198.496 264.477 199.086 264.377 199.606C264.297 200.066 264.177 200.556 264.017 201.076H252.407C252.387 201.196 252.377 201.386 252.377 201.646C252.377 202.526 252.617 203.196 253.097 203.656C253.577 204.116 254.217 204.346 255.017 204.346C256.297 204.346 257.277 203.806 257.957 202.726H263.417C262.697 204.426 261.527 205.816 259.907 206.896C258.287 207.976 256.467 208.516 254.447 208.516C252.287 208.516 250.557 207.916 249.257 206.716C247.977 205.516 247.337 203.886 247.337 201.826C247.337 201.206 247.397 200.566 247.517 199.906C247.817 198.166 248.437 196.646 249.377 195.346C250.317 194.046 251.487 193.046 252.887 192.346C254.287 191.646 255.817 191.296 257.477 191.296ZM259.337 198.466C259.377 198.186 259.397 197.996 259.397 197.896C259.397 197.096 259.147 196.486 258.647 196.066C258.147 195.626 257.487 195.406 256.667 195.406C255.787 195.406 255.007 195.676 254.327 196.216C253.667 196.736 253.187 197.486 252.887 198.466H259.337ZM272.483 202.516C272.463 202.616 272.453 202.746 272.453 202.906C272.453 203.266 272.553 203.526 272.753 203.686C272.973 203.846 273.323 203.926 273.803 203.926H275.633L274.853 208.276H272.243C268.883 208.276 267.203 206.866 267.203 204.046C267.203 203.626 267.253 203.096 267.353 202.456L268.553 195.796H266.513L267.263 191.536H269.303L270.023 187.456H275.153L274.433 191.536H277.793L277.043 195.796H273.683L272.483 202.516ZM290.97 191.356C292.61 191.356 293.9 191.826 294.84 192.766C295.8 193.706 296.28 195.016 296.28 196.696C296.28 197.256 296.22 197.856 296.1 198.496L294.36 208.276H289.26L290.88 199.186C290.94 198.846 290.97 198.546 290.97 198.286C290.97 197.446 290.73 196.796 290.25 196.336C289.79 195.876 289.14 195.646 288.3 195.646C287.3 195.646 286.46 195.956 285.78 196.576C285.1 197.196 284.66 198.066 284.46 199.186V199.126L282.84 208.276H277.71L281.64 186.076H286.77L285.42 193.756C286.08 193.016 286.89 192.436 287.85 192.016C288.81 191.576 289.85 191.356 290.97 191.356ZM308.365 191.296C310.525 191.296 312.235 191.886 313.495 193.066C314.775 194.226 315.415 195.816 315.415 197.836C315.415 198.496 315.365 199.086 315.265 199.606C315.185 200.066 315.065 200.556 314.905 201.076H303.295C303.275 201.196 303.265 201.386 303.265 201.646C303.265 202.526 303.505 203.196 303.985 203.656C304.465 204.116 305.105 204.346 305.905 204.346C307.185 204.346 308.165 203.806 308.845 202.726H314.305C313.585 204.426 312.415 205.816 310.795 206.896C309.175 207.976 307.355 208.516 305.335 208.516C303.175 208.516 301.445 207.916 300.145 206.716C298.865 205.516 298.225 203.886 298.225 201.826C298.225 201.206 298.285 200.566 298.405 199.906C298.705 198.166 299.325 196.646 300.265 195.346C301.205 194.046 302.375 193.046 303.775 192.346C305.175 191.646 306.705 191.296 308.365 191.296ZM310.225 198.466C310.265 198.186 310.285 197.996 310.285 197.896C310.285 197.096 310.035 196.486 309.535 196.066C309.035 195.626 308.375 195.406 307.555 195.406C306.675 195.406 305.895 195.676 305.215 196.216C304.555 196.736 304.075 197.486 303.775 198.466H310.225ZM323.942 194.566C324.722 193.566 325.612 192.786 326.612 192.226C327.632 191.646 328.692 191.356 329.792 191.356L328.832 196.786H327.422C326.142 196.786 325.132 197.066 324.392 197.626C323.652 198.166 323.162 199.126 322.922 200.506L321.542 208.276H316.412L319.352 191.536H324.482L323.942 194.566Z" fill="white"/>
</svg>
